# xmcd
#
# Track frame offsets: 
#        150
#        17857
#        42652
#
# Disc length: 804 seconds
#
# Revision: 1
# Processed by: cddbd v1.5.2PL0 Copyright (c) Steve Scherf et al.
# Submitted via: ExactAudioCopy v0.95b4
#
DISCID=22032203
DTITLE=FUNK the PEANUTS rated "R" - you go girl!
DYEAR=2000
DGENRE=JPop
TTITLE0=you go girl!
TTITLE1=you go girl! -KING MASA "morrow" mix-
TTITLE2=you go girl! -DJ KRUSH remix-
EXTD=
EXTT0=
EXTT1=
EXTT2=
PLAYORDER=
